<svg width="32" height="38" viewBox="0 0 32 38" fill="none" xmlns="http://www.w3.org/2000/svg">
<path d="M27.398 0.368591H4.88362C2.48864 0.368591 0.547607 2.31054 0.547607 4.7046V33.2554C0.547607 35.6504 2.48955 37.5915 4.88362 37.5915H27.398C29.793 37.5915 31.734 35.6495 31.734 33.2554V4.70551C31.734 2.31054 29.793 0.368591 27.398 0.368591ZM10.6078 32.6572H4.90722V28.1305H10.6078V32.6572ZM10.6078 25.4468H4.90722V20.9202H10.6078V25.4468ZM10.6078 18.2374H4.90722V13.7107H10.6078V18.2374ZM18.9911 32.6572H13.2905V28.1305H18.9911V32.6572ZM18.9911 25.4468H13.2905V20.9202H18.9911V25.4468ZM18.9911 18.2374H13.2905V13.7107H18.9911V18.2374ZM27.3753 32.6572H21.6748V28.1305H27.3753V32.6572ZM27.3753 25.4468H21.6748V20.9202H27.3753V25.4468ZM27.3753 18.2374H21.6748V13.7107H27.3753V18.2374ZM27.3753 11.027H4.90722V5.3038H27.3753V11.027Z" fill="#651FFF"/>
<path d="M25.7819 6.573H23.0991V9.75873H25.7819V6.573Z" fill="#651FFF"/>
</svg>
