<svg width="40" height="38" viewBox="0 0 40 38" fill="none" xmlns="http://www.w3.org/2000/svg">
<path d="M10.3675 9.96L6.62747 4.69C5.80747 5.368 5.04647 6.115 4.35547 6.923L9.56647 10.747C9.82147 10.473 10.0885 10.21 10.3675 9.96Z" fill="#651FFF"/>
<path d="M17.1053 6.96199V0.502991C14.1123 0.710991 11.3143 1.63199 8.88232 3.09599L12.6243 8.36699C13.9813 7.62299 15.4953 7.13399 17.1053 6.96199Z" fill="#651FFF"/>
<path d="M27.541 11.078L29.317 9.30298L24.797 4.78298L29.679 4.29098C26.922 2.16698 23.55 0.802977 19.874 0.513977V6.98098C22.928 7.35298 25.631 8.86498 27.541 11.078Z" fill="#651FFF"/>
<path d="M33.6801 5.10101L30.9641 5.37501L27.4531 5.72901L31.0261 9.30301L23.9521 16.375L21.3641 13.787L17.3131 9.73701L13.2631 13.787L2.2131 24.836L1.2251 25.824L1.2531 25.894L1.2601 25.91L1.2821 25.964L1.2961 25.997L1.3111 26.033L1.3311 26.084L1.3391 26.104L1.3661 26.17L1.3671 26.173L1.3961 26.242L1.4031 26.256L1.4261 26.311L1.4401 26.343L1.4561 26.381L1.4771 26.427L1.4871 26.45L1.5141 26.512L1.5171 26.517L1.5491 26.586L1.5531 26.597L1.5791 26.655L1.5911 26.681L1.6101 26.722L1.6311 26.766L1.6421 26.791L1.6711 26.85L1.6741 26.858L1.7071 26.926L1.7111 26.934L1.7391 26.993L1.7711 27.057L1.7721 27.061L1.7921 27.101L1.8061 27.129L1.8351 27.185L1.8391 27.196L1.8741 27.262L1.8771 27.267L1.9071 27.329L1.9181 27.35L1.9411 27.396L1.9741 27.459L1.9751 27.464L2.0031 27.516L2.0101 27.53L2.0461 27.596L2.0481 27.6L2.0811 27.663L2.0911 27.681L2.1171 27.729L2.1351 27.762L2.1531 27.793L2.1791 27.842L2.1891 27.859L2.2251 27.924V27.925L2.2621 27.99L2.2701 28.005L2.2971 28.054L2.3151 28.086L2.3341 28.119L2.3601 28.166L2.3711 28.184L2.4071 28.246L2.4081 28.249L2.4461 28.314C2.4831 28.379 2.5221 28.442 2.5611 28.507L2.5951 28.565L2.5991 28.57L2.6371 28.634L2.6431 28.644L2.6771 28.697L2.6921 28.722L2.7151 28.76L2.7411 28.8L2.7551 28.823L2.7901 28.878L2.7961 28.886L2.8361 28.948L2.8421 28.955L2.8781 29.011L2.9591 29.135L2.9941 29.186L3.0021 29.2L3.0431 29.262L3.0461 29.267L3.0841 29.324L3.0981 29.344L3.1271 29.386L3.1491 29.42L3.1681 29.448C3.2381 29.55 3.3101 29.652 3.3831 29.752L3.4161 29.798L3.4251 29.812L3.4691 29.873L3.5131 29.934L3.5231 29.946L3.5581 29.993C6.9301 34.523 12.3241 37.456 18.4041 37.456C28.6211 37.456 36.9021 29.174 36.9021 18.958C36.9021 18.214 36.8581 17.482 36.7731 16.761L35.0761 15.065L30.4431 19.698C30.0611 26.015 24.8181 31.02 18.4041 31.02C14.5111 31.02 11.0481 29.175 8.8431 26.312L17.3131 17.842L23.9521 24.48L28.0021 20.43L35.0761 13.356L36.4061 14.686L38.6491 16.929L39.2781 10.702L39.9061 4.47601L33.6801 5.10101Z" fill="#651FFF"/>
<path d="M6.34223 18.955C6.34223 16.778 6.91823 14.737 7.92723 12.974L2.71823 9.14996C0.936226 11.991 -0.0927734 15.353 -0.0927734 18.955C-0.0927734 20.922 0.214227 22.817 0.783227 24.594L6.34223 19.022V18.955Z" fill="#651FFF"/>
</svg>
