<svg width="133" height="141" viewBox="0 0 133 141" fill="none" xmlns="http://www.w3.org/2000/svg">
<path d="M0.445312 32.5151L5.7938 25.3276L8.44667 27.2956L5.21616 31.5739L7.84761 33.5419L10.693 29.7128L13.3459 31.6809L10.4363 35.5741L14.9076 38.8898L12.7682 41.7349L0.445312 32.5151Z" fill="white"/>
<path d="M15.166 16.2362L18.0328 14.097L25.157 24.0869L30.2701 20.3861L32.2169 23.0601L24.237 28.8358L15.166 16.2362Z" fill="white"/>
<path d="M34.4199 5.00561L43.1486 2.18193L44.1541 5.32649L38.8057 7.0592L39.64 9.64758L44.3681 8.12878L45.3736 11.2733L40.6455 12.8135L41.5227 15.4661L47.0851 13.6692L48.112 16.8351L39.1693 19.8086L34.4199 5.00561Z" fill="white"/>
<path d="M64.6065 7.78652L69.5698 15.787H65.4194L62.2103 10.5246L58.8301 15.5303H54.6797L60.0068 7.76513L55.3643 0H59.5147L62.5313 5.02701L65.6548 0.12835H69.8052L64.6065 7.78652Z" fill="white"/>
<path d="M81.9363 3.2729L85.2737 4.38526L80.3959 19.0599L77.0371 17.9475L81.9363 3.2729Z" fill="white"/>
<path d="M98.1507 10.4391C98.8781 10.8883 100.675 12.0434 102.066 13.0061C105.082 15.1452 105.339 17.2844 104.205 19.124C103.851 19.7073 103.347 20.1842 102.744 20.5043C102.141 20.8244 101.464 20.9757 100.782 20.9423C101.186 21.5732 101.382 22.3144 101.344 23.0623C101.305 23.8101 101.034 24.5273 100.568 25.1137C98.707 27.7662 95.7546 27.5737 93.0162 25.6485C91.7967 24.8142 90.128 23.5093 89.4434 22.9959L98.1507 10.4391ZM95.7974 19.9797L94.1287 22.3542C94.3931 22.6553 94.6951 22.9213 95.0272 23.1456C96.1611 23.9157 97.0596 23.8302 97.6587 22.9745C98.2577 22.1189 97.8512 21.4129 96.9099 20.8354L95.7974 19.9797ZM99.1563 15.1452L97.5517 17.4341L98.5144 18.1186C98.6675 18.2561 98.8488 18.3585 99.0456 18.4186C99.2424 18.4787 99.45 18.4951 99.6538 18.4666C99.8576 18.438 100.053 18.3653 100.225 18.2535C100.398 18.1416 100.544 17.9934 100.654 17.8192C100.762 17.6412 100.833 17.4429 100.861 17.2365C100.89 17.0301 100.876 16.82 100.819 16.6194C100.763 16.4187 100.666 16.2318 100.535 16.0702C100.403 15.9086 100.24 15.7758 100.055 15.68C99.7751 15.4817 99.482 15.303 99.1776 15.1452H99.1563Z" fill="white"/>
<path d="M116.293 25.9693L118.433 28.793L108.698 36.0662L112.442 41.2001L109.79 43.1895L103.906 35.2961L116.293 25.9693Z" fill="white"/>
<path d="M127.803 45.0292L130.734 53.7142L127.611 54.7837L125.792 49.4358L123.225 50.3129L124.808 55.019L121.684 56.1742L120.101 51.4467L117.449 52.3665L119.331 57.9069L116.186 58.9551L113.127 49.992L127.803 45.0292Z" fill="white"/>
<path d="M132.809 80.9242V81.2237C132.659 82.0152 132.167 84.7105 131.953 85.7159C130.691 91.7697 126.712 93.5024 122.69 92.6682C118.668 91.8339 115.523 88.1545 116.721 82.3788C116.892 81.5873 117.341 79.5979 117.641 78.1005V77.7369L132.809 80.9242ZM128.851 83.7051L120.294 81.9296C120.165 82.3574 120.101 82.6569 119.994 83.1703C119.783 83.7814 119.708 84.4312 119.775 85.0742C119.842 85.7173 120.049 86.3378 120.381 86.8924C120.713 87.4469 121.163 87.9219 121.699 88.2841C122.234 88.6463 122.843 88.8868 123.481 88.9888C124.096 89.138 124.736 89.1491 125.356 89.0211C125.975 88.8932 126.559 88.6294 127.064 88.2489C127.57 87.8683 127.984 87.3805 128.279 86.8204C128.573 86.2604 128.739 85.642 128.766 85.01C128.819 84.5771 128.848 84.1414 128.851 83.7051Z" fill="white"/>
<path d="M124.531 106.402L122.777 109.461L109.342 101.845L111.075 98.7648L124.531 106.402Z" fill="white"/>
<path d="M114.475 120.884L107.928 127.301L105.596 124.948L109.64 120.991L107.736 119.065L104.184 122.488L101.852 120.135L105.404 116.648L103.435 114.637L99.2637 118.744L96.9531 116.37L103.649 109.803L114.475 120.884Z" fill="white"/>
<path d="M98.1531 134.531L86.6219 140.136L85.1671 137.163L89.3389 135.023L84.0332 124.199L87.2209 122.638L92.5266 133.59L96.6984 131.451L98.1531 134.531Z" fill="white"/>
</svg>
