<svg width="136" height="74" viewBox="0 0 136 74" fill="none" xmlns="http://www.w3.org/2000/svg">
<g clip-path="url(#clip0_239_1963)">
<path d="M64.439 50.2516C62.3499 50.4865 60.1046 50.4564 58.5824 50.374C56.6496 50.2596 52.9883 48.9302 52.8481 50.852C52.774 51.7938 54.15 52.8922 54.7649 53.4906C55.6261 54.338 59.0791 55.1774 57.8153 56.8401C56.6236 57.9425 54.7929 54.8561 53.9196 54.2055C52.4916 53.1432 51.3619 52.3219 50.0941 50.9704C48.5478 49.3158 43.3683 46.9422 45.916 45.5727C48.6159 44.3217 49.1166 47.4583 56.1929 47.2555C61.1482 47.1149 66.2816 46.6832 69.939 45.5727C71.8517 44.9964 73.382 44.1851 74.7199 43.5445C75.5091 43.157 78.0007 41.9441 78.5455 41.6308C79.0342 41.3377 80.975 40.1449 81.4177 39.8276C81.8944 39.4822 82.5113 39.3296 82.9659 38.9882C84.1937 38.0625 85.3875 36.7532 86.5532 35.6387C87.7616 34.4854 88.8798 33.2408 89.898 31.9157C90.7072 30.8615 91.6266 29.6165 92.1713 28.5622C93.0426 26.8634 93.4071 24.542 94.9173 23.4095C95.9268 22.6564 99.0674 21.3853 99.5721 21.0138C101.062 19.9355 102.026 19.4495 103.159 18.0218C103.922 17.0579 104.94 15.7707 105.194 14.7908C105.867 12.2525 104.161 9.17012 103.402 7.95924C102.564 6.59776 98.1761 3.6017 97.7955 3.39888C94.9834 2.01531 89.3072 1.939 86.1966 3.39888C85.7079 3.62981 83.5167 4.97523 83.0841 5.32062C82.333 5.92505 82.325 8.09379 80.8188 7.12388C79.1404 5.6881 82.0666 5.0917 82.7236 4.36276C83.4506 3.55953 85.5237 1.939 85.9463 1.72414C86.6753 1.36268 90.9355 0.151804 92.4137 0.0534082C94.5288 -0.103223 96.3875 0.111643 98.0279 0.64981C99.9747 1.28838 101.497 2.04141 102.683 2.92899C103.097 3.22217 106.226 6.63592 107.466 7.4753C109.406 8.81268 113.314 8.45926 114.997 9.87496C115.067 10.5497 114.229 11.1802 114.398 12.0316C114.504 12.5578 115.141 12.6521 115.714 13.2285C116.331 13.853 117.426 15.2084 117.747 15.7466C117.963 16.1081 119.417 18.3752 119.774 19.2206C119.988 19.7065 121.308 22.2367 121.572 22.9315C122.063 24.277 122.219 26.1164 122.648 27.8453C123.459 31.1707 123.775 34.8315 123.483 38.8697C123.385 40.2854 124.785 44.0225 122.059 42.9481C119.758 42.5164 121.572 39.693 121.572 38.0344C121.546 32.5784 121.612 27.4056 119.655 22.9315C118.74 21.7548 118.251 19.0218 117.196 18.9937C116.479 19.9977 116.625 23.2247 116.675 24.2609C116.781 26.779 116.589 29.8153 115.838 31.9197C115.497 32.8575 114.808 33.717 114.528 34.6728C114.233 35.5985 112.575 38.8336 112.369 39.8296C112.251 40.422 111.277 42.7754 110.819 43.4301C110.292 44.151 110.111 46.4844 109.136 45.2233C108.655 43.0184 107.756 42.2272 105.791 43.0666C103.191 44.1771 100.68 47.0246 99.9447 49.8941C98.829 54.2195 102.096 58.3743 104.595 59.6012C105.785 60.1856 107.85 60.0831 107.944 61.5149C106.554 62.2639 104.399 61.8924 102.815 61.1615C102.116 60.8442 100.82 59.8402 100.057 59.1213C98.2662 57.4345 97.3689 55.3802 97.0645 52.5327C96.6939 48.9945 98.14 46.4764 99.466 44.8659C100.451 43.6429 103.7 41.4059 104.838 41.1509C106.368 40.8015 107.974 41.5585 109.623 40.9119C110.588 40.5244 110.624 38.8677 111.293 37.3195C111.622 36.5243 112.148 35.958 112.369 35.3977C112.673 34.5784 114.229 29.9257 114.528 28.3273C115.403 23.4135 116.154 16.9374 113.679 13.4714C111.151 13.3489 109.825 14.4996 108.902 16.1061C108.475 16.8511 108.527 17.8671 108.06 18.5017C105.791 21.6423 102.334 24.8673 101.97 25.0942C100.253 26.1405 98.5246 26.6746 97.5412 28.0863C97.1506 28.6586 97.1666 29.3835 96.8261 30C96.5637 30.49 94.691 33.3957 93.9579 34.3134C93.5554 34.8274 93.3571 35.4118 93.0086 35.8737C92.1593 36.9881 90.8054 37.9882 89.898 38.8657C89.5155 39.2392 88.0994 40.4782 87.7509 40.7834C87.3784 41.0967 85.6879 42.5124 85.1131 42.9441C84.0535 43.7474 83.697 44.0265 82.1327 44.6189C80.1719 46.7374 76.2922 45.3217 77.3518 49.0547C77.5721 49.8319 79.575 51.5327 77.9466 51.9303C77.1575 52.1231 76.4605 50.6351 76.0298 50.2516C75.6553 49.9182 74.2192 48.9543 73.5182 48.8158C72.0901 48.5326 71.0506 49.376 69.939 49.6511C68.593 49.9825 66.3017 50.0407 64.439 50.2516Z" fill="#BFE142"/>
<path d="M122.266 49.7011C122.382 48.3878 125.012 50.2613 125.309 50.7955C125.583 51.2895 125.876 51.8316 125.289 52.169C124.71 52.5023 124.582 52.4321 124.582 52.4321C124.413 52.1409 122.911 52.2513 122.649 52.0043C122.166 51.5445 122.19 50.5083 122.266 49.7011ZM124.976 55.4663C124.976 55.4663 125.185 54.8116 125.966 54.8357C126.761 54.8598 126.294 55.8679 126.356 56.0205C126.356 56.0205 126.248 56.7274 125.95 57.0868C125.685 57.4041 124.84 57.6049 124.554 57.2153C124.233 56.7916 124.916 55.9603 124.976 55.4663ZM111.292 49.5324C111.144 49.8035 108.993 53.8237 109.622 56.6109C109.782 57.3278 110.081 60.2315 111.05 61.0789C111.567 61.5809 113.139 62.6311 113.678 62.9504C114.171 63.2476 115.036 63.4926 115.713 63.8018C116.915 64.328 118.951 64.9585 120.852 64.3942C121.561 64.1854 124.151 63.2255 124.435 63.0769C124.944 62.8098 126.881 60.7355 127.426 59.2415C128.001 57.6451 129.228 55.9783 128.618 53.4963C128.489 52.9742 126.855 49.4762 125.629 48.3436C125.211 47.94 124.882 47.3637 124.558 47.1428C123.851 46.6769 123.047 46.6769 122.527 45.9459C122.172 45.464 120.376 45.2793 119.418 45.5765C118.188 45.9761 116.977 45.6789 115.959 46.0584C115.224 46.3415 114.429 46.8476 113.8 47.2592C113.045 47.7552 111.783 48.685 111.292 49.5324ZM75.7806 5.979C75.7806 4.08939 77.6614 4.7119 77.6273 5.57537C77.9838 6.7742 75.8267 7.00513 75.7806 5.979ZM108.422 46.1829C109.96 46.5986 108.618 48.9279 107.711 47.9821C106.435 47.4701 107.449 45.6427 108.422 46.1829ZM47.3532 69.551C49.1999 67.6915 51.319 65.8521 53.2017 64.2798C53.9989 63.6131 54.5677 62.8761 55.2407 62.358C55.6553 62.0327 56.2482 61.9705 56.6748 61.6452C57.0193 61.366 58.6777 58.8559 59.6611 58.0447C62.0586 57.4322 63.677 55.9502 65.9944 54.5707C66.6433 54.1871 67.4064 54.1148 67.9032 53.8538C68.498 53.5405 69.2371 52.4341 69.824 53.1329C68.4239 53.404 68.6843 54.5807 68.0233 55.5325C67.6748 56.0466 66.9798 56.0808 66.4751 56.4904C65.5157 57.2595 64.8948 58.3017 64.2018 59.125C61.7422 60.7455 59.527 62.8701 57.2697 64.6352C56.4885 65.2517 55.7795 66.0268 54.9964 66.5569C54.5777 66.8361 53.1236 67.9265 52.7331 68.2357C52.2043 68.6353 51.4171 68.8903 50.8163 69.314C50.1934 69.7498 48.3867 70.9065 48.0643 71.1073C47.4854 71.4687 47.1229 72.1977 46.512 72.543C46.0654 72.7981 44.9237 74.6756 43.762 73.7479C40.9499 72.1153 45.8711 71.0249 47.3532 69.551ZM99.1026 11.3085C100.27 11.5474 101.662 12.8025 100.821 14.0575C100.603 14.3668 99.9999 14.4652 99.363 13.8487C98.4356 12.9691 97.2419 15.0917 96.4688 14.0836C96.4047 13.8487 96.3386 13.6178 96.3466 13.3467C96.4127 12.0454 97.4342 10.9751 99.1026 11.3085ZM1.09786 34.1926C1.64266 33.4034 1.92707 32.1142 2.64011 31.56C3.10479 31.1986 4.31054 30.7528 5.27595 30.4776C6.53178 30.1323 8.30436 29.9676 9.93874 29.7668C11.6012 29.5519 13.1194 29.1122 14.3552 28.8049C15.9475 28.4013 17.4997 28.2206 17.4697 26.7607C17.4457 25.5719 16.276 25.3952 15.6771 24.608C15.4087 24.2506 15.2705 23.6321 14.9621 23.1763C14.1629 21.9995 12.8069 19.8348 13.2836 18.0195C13.518 17.144 15.4548 14.8266 16.3981 14.6579C18.1467 14.3527 20.3219 15.8548 22.0043 16.3367C23.3603 16.7283 24.7143 16.897 25.9581 17.1801C29.5333 17.9954 33.2267 18.5878 37.557 18.8548C42.6263 19.1721 47.2871 19.9131 50.5839 17.5375C48.6271 16.5094 45.7869 16.5536 42.8026 16.2202C40.8698 16.0094 36.0588 15.7142 36.0007 13.937C35.9386 12.5213 38.8869 11.5053 39.8223 10.949C40.4171 10.5835 40.7797 10.0193 41.2543 9.74818C42.0355 9.30439 42.8627 9.29636 43.8782 8.9088C44.7114 8.59955 45.3723 8.01921 46.2696 7.70796C47.5755 7.26016 49.4803 7.11959 51.4171 6.63765C54.8602 5.77016 58.6937 5.50911 62.8919 5.79024C63.9153 5.86454 66.2548 6.03322 66.8336 6.51114C68.0514 7.53928 66.8156 8.81642 67.1861 10.2261C67.5727 11.6779 70.8434 12.2181 73.0466 13.2222C73.7457 13.5515 74.0521 13.9471 74.6029 14.3045C76.039 15.2423 77.0365 15.7323 78.2963 17.0536C79.7985 18.6139 80.3393 19.7746 81.0543 21.6079C81.3287 22.2867 81.6752 23.0437 81.7693 23.7686C82.212 27.094 80.4094 29.9114 79.0234 31.558C77.6854 33.1464 76.4035 33.1002 74.008 33.5942C72.6821 33.8613 71.4864 34.1705 70.3006 34.3111C63.7751 35.0963 57.8565 34.4476 52.008 34.5581C52.8492 34.9617 53.35 35.9858 54.2813 36.4718C55.8696 37.3031 58.6937 37.3654 61.0992 37.5501C63.6309 37.7389 66.1847 37.9698 68.2617 38.0281C64.6284 41.1145 57.1335 41.1024 50.5839 40.7811C48.1464 40.6667 45.9211 40.5964 43.762 40.3072C41.4526 39.99 39.7762 39.1425 37.9055 38.751C36.876 38.5281 36.0007 38.5702 35.1595 38.273C34.2121 37.9317 33.3909 37.257 32.5216 36.9557C31.6924 36.6545 30.9313 36.5682 30.2543 36.2348C29.5974 35.9015 29.1267 35.3533 28.4617 35.03C27.997 34.8111 27.4683 34.791 27.0296 34.5601C25.5435 33.7368 23.7088 31.5239 21.772 31.56C20.7986 31.5801 20.0274 32.3673 19.1481 32.6384C17.4256 33.1645 15.6811 33.1283 13.8865 33.8392C12.1219 34.534 10.4194 34.6585 8.62883 35.032C5.76466 35.6324 3.13283 37.6044 0.140469 37.0722C-0.364266 35.7549 0.617163 34.8834 1.09786 34.1926ZM65.5017 59.866C65.768 60.2315 66.2407 60.3319 66.6994 60.5046C66.9278 60.2962 67.2092 60.1551 67.5126 60.0969C68.7604 59.9162 70.3988 61.0588 70.3768 62.1371C70.3607 63.101 69.2331 63.4464 68.7023 64.2898C68.3057 64.9324 68.5341 65.4344 67.8691 65.8541C67.4073 65.8278 66.9596 65.6845 66.568 65.4376C66.1764 65.1907 65.8536 64.8483 65.6298 64.4424C65.2713 64.3179 64.8948 64.1754 64.5002 64.1593C63.7491 64.1272 63.4366 64.575 62.7356 64.2015C61.7862 62.2195 63.2704 60.2013 65.5017 59.866Z" fill="#BFE142"/>
</g>
<defs>
<clipPath id="clip0_239_1963">
<rect width="136" height="74" fill="white"/>
</clipPath>
</defs>
</svg>
