<svg width="5" height="40" viewBox="0 0 5 40" fill="none" xmlns="http://www.w3.org/2000/svg">
<path fill-rule="evenodd" clip-rule="evenodd" d="M0 0H1C3.20914 0 5 1.79086 5 4V5C3.89543 5 3 5.89543 3 7C3 8.10457 3.89543 9 5 9V12C3.89543 12 3 12.8954 3 14C3 15.1046 3.89543 16 5 16V18C3.89543 18 3 18.8954 3 20C3 21.1046 3.89543 22 5 22V25C3.89543 25 3 25.8954 3 27C3 28.1046 3.89543 29 5 29V32C3.89543 32 3 32.8954 3 34C3 35.1046 3.89543 36 5 36C5 38.2091 3.20914 40 1 40H0V0Z" fill="#651FFF"/>
</svg>
